<svg width="18" height="19" viewBox="0 0 18 19" fill="none" xmlns="http://www.w3.org/2000/svg">
<path fill-rule="evenodd" clip-rule="evenodd" d="M0 5.95605C0 3.19463 2.23858 0.956055 5 0.956055H13C15.7614 0.956055 18 3.19463 18 5.95605V13.9561C18 16.7175 15.7614 18.9561 13 18.9561H5C2.23858 18.9561 0 16.7175 0 13.9561V5.95605ZM9 12.9561C10.6569 12.9561 12 11.6129 12 9.95605C12 8.2992 10.6569 6.95605 9 6.95605C7.34315 6.95605 6 8.2992 6 9.95605C6 11.6129 7.34315 12.9561 9 12.9561ZM9 14.4561C11.4853 14.4561 13.5 12.4413 13.5 9.95605C13.5 7.47077 11.4853 5.45605 9 5.45605C6.51472 5.45605 4.5 7.47077 4.5 9.95605C4.5 12.4413 6.51472 14.4561 9 14.4561ZM14 4.95605C14.5523 4.95605 15 4.50834 15 3.95605C15 3.40377 14.5523 2.95605 14 2.95605C13.4477 2.95605 13 3.40377 13 3.95605C13 4.50834 13.4477 4.95605 14 4.95605Z" fill="white"/>
</svg>
