<svg width="18" height="17" viewBox="0 0 18 17" fill="none" xmlns="http://www.w3.org/2000/svg">
<path fill-rule="evenodd" clip-rule="evenodd" d="M17.6 16.9565H13.7101V11.3319C13.7101 9.85964 13.1017 8.85458 11.7637 8.85458C10.7402 8.85458 10.1711 9.53282 9.90619 10.1865C9.80685 10.4211 9.82237 10.7479 9.82237 11.0747V16.9565H5.96875C5.96875 16.9565 6.01842 6.99302 5.96875 6.08734H9.82237V7.79318C10.05 7.04732 11.2814 5.98284 13.2465 5.98284C15.6846 5.98284 17.6 7.54627 17.6 10.9129V16.9565ZM2.07168 4.72733H2.04685C0.80508 4.72733 0 3.89644 0 2.84323C0 1.76953 0.828881 0.956055 2.09548 0.956055C3.36105 0.956055 4.13923 1.76748 4.16406 2.84016C4.16406 3.89337 3.36105 4.72733 2.07168 4.72733ZM0.445312 6.08496H3.8757V16.9541H0.445312V6.08496Z" fill="white"/>
</svg>
