<svg width="21" height="18" viewBox="0 0 21 18" fill="none" xmlns="http://www.w3.org/2000/svg">
<path fill-rule="evenodd" clip-rule="evenodd" d="M9.98857 5.47832L10.0332 6.21362L9.28996 6.12358C6.58472 5.77844 4.22136 4.60797 2.21473 2.64217L1.23371 1.66678L0.98102 2.38707C0.445918 3.99272 0.787789 5.68841 1.90258 6.82887C2.49714 7.45912 2.36337 7.54916 1.33775 7.17401C0.98102 7.05396 0.668877 6.96392 0.639149 7.00894C0.535102 7.11398 0.891836 8.47954 1.17425 9.01976C1.56071 9.77006 2.3485 10.5054 3.21061 10.9405L3.93894 11.2857L3.07683 11.3007C2.24445 11.3007 2.21473 11.3157 2.30391 11.6308C2.60119 12.6062 3.77544 13.6416 5.08347 14.0918L6.00503 14.4069L5.20238 14.8871C4.01326 15.5774 2.61605 15.9676 1.21884 15.9976C0.549966 16.0126 0 16.0726 0 16.1176C0 16.2677 1.8134 17.108 2.86874 17.4382C6.03476 18.4136 9.79533 17.9934 12.6195 16.3277C14.6261 15.1422 16.6327 12.7863 17.5692 10.5054C18.0745 9.28986 18.5799 7.06896 18.5799 6.00353C18.5799 5.31325 18.6245 5.22322 19.4569 4.39788C19.9474 3.91769 20.4082 3.39248 20.4974 3.24241C20.646 2.9573 20.6311 2.9573 19.8731 3.2124C18.6096 3.66259 18.4313 3.60256 19.0556 2.92729C19.5163 2.44709 20.0663 1.57674 20.0663 1.32164C20.0663 1.27662 19.8434 1.35165 19.5907 1.4867C19.3231 1.63676 18.7286 1.86186 18.2826 1.99691L17.48 2.25201L16.7517 1.75681C16.3503 1.4867 15.7855 1.18658 15.4882 1.09655C14.7302 0.88646 13.5708 0.916472 12.887 1.15657C11.029 1.83184 9.85479 3.57255 9.98857 5.47832Z" fill="white"/>
</svg>
