<svg xmlns="http://www.w3.org/2000/svg" width="1208" height="1266" viewBox="0 0 1208 1266" fill="none"><path d="M935.782 1020.16C935.782 1020.16 932.847 943.739 949.168 903.872C984.405 817.798 1078.2 810.284 1018.5 721.513C961 636.013 824 799.244 717 892.013C638.371 960.183 574.103 903.872 536.601 851.292C475.293 765.337 543.36 638.146 642.802 602.674C776.987 554.808 981.866 634.013 999.5 534.513C1025.36 388.604 783.876 485.025 734.414 388.604C680.794 284.079 842.459 161.102 767.444 89.6075C709.636 34.5124 605.772 103.267 588.764 170.164C562.345 274.076 665.304 338.472 610.103 430.388C539.298 548.285 355.386 275.381 256.034 409.024C211.309 469.187 237.377 522.379 288.625 589.585C349.004 668.765 435.853 711.981 405.087 799.244C382.052 864.582 262.034 934.492 262.034 934.492" stroke="url(#paint0_linear)" stroke-width="40"/><defs><linearGradient id="paint0_linear" x1="994.999" y1="224.513" x2="620.605" y2="982.565" gradientUnits="userSpaceOnUse"><stop stop-color="#3DD0CA"/><stop offset="0.632496" stop-color="#29C0CD"/><stop offset="1" stop-color="#BD3CB5"/></linearGradient></defs></svg>