<svg width="140" height="26" viewBox="0 0 140 26" fill="none" xmlns="http://www.w3.org/2000/svg">
<path d="M20.1338 0.956055H4.60828C2.0662 0.963287 0.00723214 3.02225 0 5.56433V21.092C0.00723214 23.6341 2.0662 25.6931 4.60828 25.7003H20.1338C22.6759 25.6931 24.7348 23.6341 24.7421 21.092V5.57092C24.7384 3.02627 22.6784 0.963302 20.1338 0.956055ZM2.5565 5.56433C2.55771 4.43202 3.47597 3.51474 4.60828 3.51475H9.27581L2.5565 10.2319V5.56433ZM2.5565 13.8592L12.9032 3.51475H20.3642L2.54991 21.329L2.5565 13.8592ZM4.36689 23.1416L6.82245 20.6905L9.27581 23.1416H4.36689ZM12.901 23.1416L8.63503 18.8757L12.3655 15.1452L20.3752 23.146L12.901 23.1416ZM22.1856 21.3312L14.1847 13.3348L22.1856 5.35586V21.3312Z" fill="white"/>
<path d="M35.7686 20.7069V6.24864H38.7635V12.7342L45.0838 6.24864H48.7396L41.7584 13.1266L49.0701 20.7069H45.0631L38.7635 13.9321V20.7069H35.7686Z" fill="white"/>
<path d="M51.3889 8.66523C50.9483 8.66523 50.5696 8.50688 50.2529 8.19018C49.9362 7.87347 49.7778 7.4948 49.7778 7.05417C49.7778 6.61354 49.9362 6.23487 50.2529 5.91817C50.5696 5.60147 50.9483 5.44312 51.3889 5.44312C51.8295 5.44312 52.2082 5.60147 52.5249 5.91817C52.8416 6.23487 53 6.61354 53 7.05417C53 7.4948 52.8416 7.87347 52.5249 8.19018C52.2082 8.50688 51.8295 8.66523 51.3889 8.66523ZM52.8141 9.94582V20.7069H49.9844V9.94582H52.8141Z" fill="white"/>
<path d="M57.8567 5.62901V20.7069H55.027V6.24864L57.8567 5.62901Z" fill="white"/>
<path d="M59.5739 15.3367C59.5739 14.5518 59.7185 13.822 60.0077 13.1473C60.3106 12.4588 60.7168 11.8667 61.2263 11.371C61.7495 10.8615 62.3623 10.4622 63.0646 10.173C63.7668 9.88385 64.5173 9.73927 65.3159 9.73927C66.1145 9.73927 66.865 9.88385 67.5672 10.173C68.2695 10.4622 68.8754 10.8615 69.3849 11.371C69.9081 11.8667 70.3143 12.4588 70.6035 13.1473C70.9064 13.822 71.0579 14.5518 71.0579 15.3367C71.0579 16.1215 70.9064 16.8582 70.6035 17.5467C70.3143 18.2214 69.9081 18.8066 69.3849 19.3023C68.8754 19.7981 68.2695 20.1905 67.5672 20.4797C66.865 20.7688 66.1145 20.9134 65.3159 20.9134C64.5173 20.9134 63.7668 20.7688 63.0646 20.4797C62.3623 20.1905 61.7495 19.7981 61.2263 19.3023C60.7168 18.8066 60.3106 18.2214 60.0077 17.5467C59.7185 16.8582 59.5739 16.1215 59.5739 15.3367ZM65.3159 18.4555C66.1421 18.4555 66.8443 18.1526 67.4227 17.5467C68.001 16.9408 68.2902 16.2042 68.2902 15.3367C68.2902 14.4554 68.001 13.7118 67.4227 13.106C66.8443 12.5001 66.1421 12.1972 65.3159 12.1972C64.4897 12.1972 63.7875 12.5001 63.2091 13.106C62.6308 13.7118 62.3416 14.4554 62.3416 15.3367C62.3416 16.2042 62.6308 16.9408 63.2091 17.5467C63.7875 18.1526 64.4897 18.4555 65.3159 18.4555Z" fill="white"/>
<path d="M73.6965 17.5467C74.1647 17.5467 74.564 17.7119 74.8945 18.0424C75.2249 18.3729 75.3902 18.7722 75.3902 19.2404C75.3902 19.6948 75.2249 20.0872 74.8945 20.4177C74.564 20.7482 74.1647 20.9134 73.6965 20.9134C73.2421 20.9134 72.8497 20.7482 72.5192 20.4177C72.1887 20.0872 72.0235 19.6948 72.0235 19.2404C72.0235 18.7722 72.1887 18.3729 72.5192 18.0424C72.8497 17.7119 73.2421 17.5467 73.6965 17.5467Z" fill="white"/>
<path d="M77.5013 20.7069V6.24864H80.4962V12.0526H87.147V6.24864H90.1419V20.7069H87.147V14.7996H80.4962V20.7069H77.5013Z" fill="white"/>
<path d="M102.23 19.3643C101.569 19.9013 100.888 20.2938 100.185 20.5416C99.4969 20.7895 98.7258 20.9134 97.872 20.9134C97.0596 20.9134 96.2954 20.7688 95.5794 20.4797C94.8771 20.1905 94.2644 19.7981 93.7411 19.3023C93.2316 18.8066 92.8254 18.2214 92.5225 17.5467C92.2333 16.8582 92.0888 16.1215 92.0888 15.3367C92.0888 14.5656 92.2265 13.8426 92.5019 13.1679C92.791 12.4794 93.1834 11.8873 93.6792 11.3916C94.1749 10.8822 94.7601 10.4828 95.4348 10.1937C96.1233 9.90451 96.8531 9.75992 97.6242 9.75992C98.3815 9.75992 99.0838 9.91139 99.731 10.2143C100.392 10.5035 100.956 10.9028 101.425 11.4123C101.907 11.9218 102.278 12.5345 102.54 13.2505C102.815 13.9528 102.953 14.717 102.953 15.5432V16.2868H94.9391C95.1319 16.9615 95.5036 17.5054 96.0544 17.9185C96.6052 18.3316 97.2524 18.5381 97.996 18.5381C98.4641 18.5381 98.9048 18.4624 99.3179 18.3109C99.731 18.1595 100.082 17.946 100.371 17.6706L102.23 19.3643ZM97.5622 12.0939C96.915 12.0939 96.3574 12.2936 95.8892 12.6929C95.421 13.0784 95.0974 13.6017 94.9184 14.2626H100.185C100.006 13.6292 99.6759 13.1129 99.1939 12.7135C98.7258 12.3004 98.1819 12.0939 97.5622 12.0939Z" fill="white"/>
<path d="M108.054 20.8927C106.898 20.8927 105.955 20.5898 105.225 19.9839C104.495 19.3643 104.13 18.5657 104.13 17.588C104.13 16.5691 104.522 15.7704 105.307 15.1921C106.092 14.6138 107.173 14.3246 108.55 14.3246C108.991 14.3246 109.431 14.359 109.872 14.4279C110.313 14.4967 110.746 14.6 111.173 14.7377V13.9735C111.173 13.3538 110.98 12.8857 110.595 12.5689C110.209 12.2522 109.645 12.0939 108.901 12.0939C108.447 12.0939 107.951 12.1696 107.414 12.3211C106.891 12.4588 106.292 12.6791 105.617 12.982L104.584 10.8959C105.424 10.5104 106.237 10.2212 107.022 10.0284C107.82 9.83566 108.605 9.73927 109.376 9.73927C110.822 9.73927 111.944 10.0904 112.743 10.7927C113.555 11.4811 113.962 12.4588 113.962 13.7256V20.7069H111.173V19.9633C110.719 20.28 110.237 20.5141 109.727 20.6655C109.232 20.817 108.674 20.8927 108.054 20.8927ZM106.836 17.526C106.836 17.9391 107.015 18.2696 107.373 18.5175C107.731 18.7516 108.206 18.8686 108.798 18.8686C109.266 18.8686 109.693 18.8135 110.079 18.7034C110.478 18.5794 110.843 18.4073 111.173 18.187V16.5759C110.829 16.4382 110.464 16.3419 110.079 16.2868C109.707 16.2179 109.314 16.1835 108.901 16.1835C108.254 16.1835 107.745 16.3074 107.373 16.5553C107.015 16.7894 106.836 17.113 106.836 17.526Z" fill="white"/>
<path d="M118.933 5.62901V20.7069H116.103V6.24864L118.933 5.62901Z" fill="white"/>
<path d="M122.612 17.6706V12.3211H120.402V9.94582H122.612V7.19875L125.442 6.55846V9.94582H128.499V12.3211H125.442V17.0923C125.442 17.6018 125.552 17.9598 125.772 18.1663C125.993 18.3729 126.378 18.4762 126.929 18.4762C127.191 18.4762 127.439 18.4624 127.673 18.4348C127.907 18.3935 128.162 18.3247 128.437 18.2283V20.5416C128.134 20.638 127.769 20.7137 127.342 20.7688C126.915 20.8377 126.55 20.8721 126.248 20.8721C125.05 20.8721 124.141 20.6036 123.521 20.0666C122.915 19.5158 122.612 18.7171 122.612 17.6706Z" fill="white"/>
<path d="M129.9 20.7069V6.24864L132.73 5.62901V10.7927C133.143 10.4484 133.597 10.1868 134.093 10.0078C134.602 9.82877 135.153 9.73927 135.745 9.73927C136.984 9.73927 138.003 10.1386 138.802 10.9372C139.601 11.7359 140 12.7617 140 14.0148V20.7069H137.17V14.4279C137.17 13.7531 136.964 13.2092 136.551 12.7961C136.151 12.3831 135.614 12.1765 134.94 12.1765C134.471 12.1765 134.045 12.2729 133.659 12.4657C133.287 12.6447 132.977 12.9063 132.73 13.2505V20.7069H129.9Z" fill="white"/>
</svg>
